<svg xmlns="http://www.w3.org/2000/svg" viewBox="0 0 64 64">
  <defs>
    <linearGradient id="chipBody" x1="0%" y1="0%" x2="100%" y2="100%">
      <stop offset="0%" stop-color="#2a3d67" />
      <stop offset="100%" stop-color="#18243c" />
    </linearGradient>
    <linearGradient id="chipDie" x1="0%" y1="0%" x2="100%" y2="100%">
      <stop offset="0%" stop-color="#101827" />
      <stop offset="100%" stop-color="#0b1220" />
    </linearGradient>
  </defs>

  <g fill="none" stroke="#4f80ff" stroke-width="3.4" stroke-linecap="round">
    <path d="M16 9V2.5" />
    <path d="M24 9V2.5" />
    <path d="M32 9V2.5" />
    <path d="M40 9V2.5" />
    <path d="M48 9V2.5" />

    <path d="M16 61.5V55" />
    <path d="M24 61.5V55" />
    <path d="M32 61.5V55" />
    <path d="M40 61.5V55" />
    <path d="M48 61.5V55" />

    <path d="M9 16H2.5" />
    <path d="M9 24H2.5" />
    <path d="M9 32H2.5" />
    <path d="M9 40H2.5" />
    <path d="M9 48H2.5" />

    <path d="M61.5 16H55" />
    <path d="M61.5 24H55" />
    <path d="M61.5 32H55" />
    <path d="M61.5 40H55" />
    <path d="M61.5 48H55" />
  </g>

  <rect x="9" y="9" width="46" height="46" rx="9" fill="url(#chipBody)" stroke="#4f80ff" stroke-width="3" />
  <rect x="18.5" y="18.5" width="27" height="27" rx="5.5" fill="url(#chipDie)" stroke="#6b96ff" stroke-width="1.9" />

  <g fill="#eef4ff" opacity="0.95">
    <rect x="23.5" y="23.5" width="12.5" height="3" rx="1.5" />
    <rect x="23.5" y="31" width="17" height="3" rx="1.5" />
    <rect x="23.5" y="38.5" width="9.5" height="3" rx="1.5" />
  </g>

  <g fill="none" stroke="#cfdcff" stroke-width="1.6" stroke-linecap="round" opacity="0.9">
    <path d="M40.5 23.5V34" />
    <path d="M33.5 40h7" />
    <path d="M21.5 31h2.5" />
  </g>
</svg>
