<svg xmlns="http://www.w3.org/2000/svg" viewBox="0 0 64 64">
  <defs>
    <linearGradient id="body" x1="0%" y1="0%" x2="100%" y2="100%">
      <stop offset="0%" stop-color="#0d2d4a"/>
      <stop offset="100%" stop-color="#071828"/>
    </linearGradient>
  </defs>

  <g transform="rotate(12 32 32)">
    <!-- pins pushed to absolute edge -->
    <g stroke="#1a7fa8" stroke-width="2.8" stroke-linecap="round" opacity="0.98" fill="none">
      <!-- top -->
      <line x1="18" y1="8" x2="18" y2="0"/>
      <line x1="25" y1="8" x2="25" y2="0"/>
      <line x1="32" y1="8" x2="32" y2="0"/>
      <line x1="39" y1="8" x2="39" y2="0"/>
      <line x1="46" y1="8" x2="46" y2="0"/>

      <!-- bottom -->
      <line x1="18" y1="56" x2="18" y2="64"/>
      <line x1="25" y1="56" x2="25" y2="64"/>
      <line x1="32" y1="56" x2="32" y2="64"/>
      <line x1="39" y1="56" x2="39" y2="64"/>
      <line x1="46" y1="56" x2="46" y2="64"/>

      <!-- left -->
      <line x1="8" y1="18" x2="0" y2="18"/>
      <line x1="8" y1="25" x2="0" y2="25"/>
      <line x1="8" y1="32" x2="0" y2="32"/>
      <line x1="8" y1="39" x2="0" y2="39"/>
      <line x1="8" y1="46" x2="0" y2="46"/>

      <!-- right -->
      <line x1="56" y1="18" x2="64" y2="18"/>
      <line x1="56" y1="25" x2="64" y2="25"/>
      <line x1="56" y1="32" x2="64" y2="32"/>
      <line x1="56" y1="39" x2="64" y2="39"/>
      <line x1="56" y1="46" x2="64" y2="46"/>
    </g>

    <!-- chip body -->
    <rect x="8" y="8" width="48" height="48" rx="3"
          fill="url(#body)" stroke="#1a7fa8" stroke-width="2.5"/>

    <!-- inner core -->
    <rect x="17" y="17" width="30" height="30" rx="1.5"
          fill="#17324a" stroke="#1a7fa8" stroke-width="2.1"/>
  </g>
</svg>