<svg xmlns="http://www.w3.org/2000/svg" viewBox="0 0 70 70">
  <defs>
    <linearGradient id="body" x1="0%" y1="0%" x2="100%" y2="100%">
      <stop offset="0%" stop-color="#0d2d4a"/>
      <stop offset="100%" stop-color="#071828"/>
    </linearGradient>
  </defs>

  <g transform="rotate(18 35 35)">
    <g stroke="#1a7fa8" stroke-width="2.4" stroke-linecap="round" opacity="0.9" fill="none">
      <line x1="19" y1="11" x2="19" y2="4"/>
      <line x1="27" y1="11" x2="27" y2="4"/>
      <line x1="35" y1="11" x2="35" y2="4"/>
      <line x1="43" y1="11" x2="43" y2="4"/>
      <line x1="51" y1="11" x2="51" y2="4"/>

      <line x1="19" y1="59" x2="19" y2="66"/>
      <line x1="27" y1="59" x2="27" y2="66"/>
      <line x1="35" y1="59" x2="35" y2="66"/>
      <line x1="43" y1="59" x2="43" y2="66"/>
      <line x1="51" y1="59" x2="51" y2="66"/>

      <line x1="11" y1="19" x2="4" y2="19"/>
      <line x1="11" y1="27" x2="4" y2="27"/>
      <line x1="11" y1="35" x2="4" y2="35"/>
      <line x1="11" y1="43" x2="4" y2="43"/>
      <line x1="11" y1="51" x2="4" y2="51"/>

      <line x1="59" y1="19" x2="66" y2="19"/>
      <line x1="59" y1="27" x2="66" y2="27"/>
      <line x1="59" y1="35" x2="66" y2="35"/>
      <line x1="59" y1="43" x2="66" y2="43"/>
      <line x1="59" y1="51" x2="66" y2="51"/>
    </g>

    <rect x="11" y="11" width="48" height="48" rx="8"
          fill="url(#body)" stroke="#1a7fa8" stroke-width="2"/>

    <rect x="21" y="21" width="28" height="28" rx="4"
          fill="#10243a" stroke="#1a7fa8" stroke-width="1.8"/>
  </g>
</svg>