<svg xmlns="http://www.w3.org/2000/svg" viewBox="0 0 64 64">
  <defs>
    <linearGradient id="body" x1="0%" y1="0%" x2="100%" y2="100%">
      <stop offset="0%" stop-color="#0d2d4a"/>
      <stop offset="100%" stop-color="#071828"/>
    </linearGradient>
  </defs>

  <!-- pins -->
  <g stroke="#1a7fa8" stroke-width="2.4" stroke-linecap="round" opacity="0.9" fill="none">
    <!-- top -->
    <line x1="16" y1="8" x2="16" y2="3"/>
    <line x1="24" y1="8" x2="24" y2="3"/>
    <line x1="32" y1="8" x2="32" y2="3"/>
    <line x1="40" y1="8" x2="40" y2="3"/>
    <line x1="48" y1="8" x2="48" y2="3"/>

    <!-- bottom -->
    <line x1="16" y1="56" x2="16" y2="61"/>
    <line x1="24" y1="56" x2="24" y2="61"/>
    <line x1="32" y1="56" x2="32" y2="61"/>
    <line x1="40" y1="56" x2="40" y2="61"/>
    <line x1="48" y1="56" x2="48" y2="61"/>

    <!-- left -->
    <line x1="8" y1="16" x2="3" y2="16"/>
    <line x1="8" y1="24" x2="3" y2="24"/>
    <line x1="8" y1="32" x2="3" y2="32"/>
    <line x1="8" y1="40" x2="3" y2="40"/>
    <line x1="8" y1="48" x2="3" y2="48"/>

    <!-- right -->
    <line x1="56" y1="16" x2="61" y2="16"/>
    <line x1="56" y1="24" x2="61" y2="24"/>
    <line x1="56" y1="32" x2="61" y2="32"/>
    <line x1="56" y1="40" x2="61" y2="40"/>
    <line x1="56" y1="48" x2="61" y2="48"/>
  </g>

  <!-- chip body -->
  <rect x="8" y="8" width="48" height="48" rx="8"
        fill="url(#body)" stroke="#1a7fa8" stroke-width="2"/>

  <!-- inner core -->
  <rect x="18" y="18" width="28" height="28" rx="4"
        fill="#040e18" stroke="#1a7fa8" stroke-width="1.8"/>
</svg>